<svg xmlns="http://www.w3.org/2000/svg" xmlns:xlink="http://www.w3.org/1999/xlink" viewBox="0,0,256,256" width="240px" height="240px"><g fill="none" fill-rule="nonzero" stroke="none" stroke-width="1" stroke-linecap="butt" stroke-linejoin="miter" stroke-miterlimit="10" stroke-dasharray="" stroke-dashoffset="0" font-family="none" font-weight="none" font-size="none" text-anchor="none" style="mix-blend-mode: normal"><g transform="scale(5.33333,5.33333)"><path d="M23.084,11.277c-1.633,-2.449 -1.986,-5.722 -2.063,-7.067c-4.148,0.897 -8.269,2.506 -8.031,3.691c0.03,0.149 0.218,0.328 0.53,0.502l-0.488,0.873c-0.596,-0.334 -0.931,-0.719 -1.022,-1.179c-0.269,-1.341 1.25,-2.554 4.642,-3.709c2.316,-0.789 4.652,-1.26 4.751,-1.279l0.597,-0.12l0,0.611c0,0.042 0.026,4.288 1.916,7.123z" fill="#cfd8dc"></path><path d="M24.751,43h-0.251c-8.192,0 -17.309,-2.573 -18.386,-6.879c-0.657,-2.63 1.492,-5.536 6.214,-8.401l0.52,0.854c-4.249,2.579 -6.296,5.172 -5.763,7.305c0.935,3.738 9.575,6.068 17.153,6.12c0.901,-1.347 5.742,-9.26 2.979,-19.873l0.967,-0.252c3.149,12.092 -3.218,20.837 -3.282,20.924z" fill="#cfd8dc"></path><path d="M9.931,39.306c-0.539,0 -0.806,-0.059 -0.85,-0.07c-0.176,-0.043 -0.314,-0.178 -0.362,-0.352c-0.049,-0.174 0.001,-0.361 0.129,-0.488c0.072,-0.072 7.197,-7.208 8.159,-12.978l0.986,0.164c-0.827,4.964 -5.715,10.623 -7.656,12.707c1.939,-0.111 6.835,-1.019 16.234,-6.28c-7.335,-0.804 -8.495,-6.676 -8.507,-6.739l0.983,-0.181c0.047,0.246 1.226,6.011 9.244,6.011c0.003,0 0.005,0 0.008,0v0c0.227,0 0.424,0.152 0.482,0.37c0.06,0.218 -0.036,0.449 -0.231,0.563c-11.235,6.509 -16.683,7.272 -18.619,7.273z" fill="#cfd8dc"></path><path d="M14.524,41.7c-0.207,0 -0.395,-0.128 -0.468,-0.325c-0.079,-0.211 -0.007,-0.45 0.177,-0.582c0.034,-0.025 1.813,-1.338 3.706,-4.228c-0.728,-0.322 -1.465,-0.698 -2.196,-1.137c-0.888,-0.533 -1.559,-1.105 -2.06,-1.691c-2.57,0.678 -4.942,0.946 -7.025,0.769l0.084,-0.996c1.876,0.159 4.009,-0.063 6.321,-0.64c-1.573,-2.688 -0.129,-5.356 -0.109,-5.392l0.874,0.487c-0.067,0.122 -1.265,2.37 0.249,4.633c2.201,-0.632 4.549,-1.567 6.979,-2.782c0.559,-1.835 0.996,-3.922 1.225,-6.276c0.016,-0.161 0.108,-0.304 0.248,-0.385c0.14,-0.081 0.311,-0.088 0.458,-0.021c0.032,0.015 3.264,1.491 5.604,2.454c0.17,0.07 0.288,0.228 0.307,0.411c0.02,0.183 -0.063,0.361 -0.216,0.465c-2.289,1.56 -4.563,2.913 -6.778,4.042c-0.702,2.225 -1.571,4.077 -2.459,5.591c3.702,1.383 6.915,1.404 6.956,1.404c0.228,0 0.427,0.154 0.484,0.375c0.057,0.221 -0.042,0.452 -0.241,0.563c-4.54,2.522 -11.767,3.232 -12.072,3.261c-0.016,-0.001 -0.032,0 -0.048,0zM18.909,36.967c-1.04,1.614 -2.062,2.773 -2.826,3.53c1.998,-0.294 5.501,-0.938 8.408,-2.139c-1.392,-0.171 -3.407,-0.551 -5.582,-1.391zM14.767,33.431c0.393,0.392 0.883,0.775 1.49,1.14c0.736,0.442 1.483,0.817 2.22,1.135c0.754,-1.264 1.501,-2.781 2.142,-4.568c-2.021,0.962 -3.983,1.73 -5.852,2.293zM23.202,24.329c-0.205,1.768 -0.521,3.381 -0.913,4.85c1.66,-0.885 3.354,-1.896 5.062,-3.026c-1.549,-0.656 -3.252,-1.419 -4.149,-1.824z" fill="#cfd8dc"></path><path d="M17.924,10.6c-0.117,0 -0.233,-0.042 -0.325,-0.12c-1.61,-1.378 -3.505,-4.182 -3.585,-4.301c-0.129,-0.191 -0.109,-0.446 0.046,-0.616c0.154,-0.171 0.408,-0.211 0.608,-0.102c0.011,0.003 0.938,0.385 7.217,1.431c0.181,0.03 0.33,0.156 0.39,0.328c0.061,0.172 0.022,0.364 -0.1,0.5c-1.758,1.953 -3.979,2.813 -4.073,2.848c-0.058,0.021 -0.119,0.032 -0.178,0.032zM15.647,6.746c0.631,0.849 1.54,1.996 2.372,2.769c0.511,-0.233 1.657,-0.818 2.744,-1.798c-2.583,-0.441 -4.159,-0.755 -5.116,-0.971z" fill="#cfd8dc"></path><path d="M21.843,24.4c-0.068,0 -0.137,-0.014 -0.201,-0.042c-0.199,-0.088 -0.319,-0.294 -0.296,-0.51c0.292,-2.749 -3.926,-3.852 -3.969,-3.862c-0.174,-0.044 -0.312,-0.179 -0.359,-0.352c-0.047,-0.173 0.002,-0.359 0.129,-0.486c0.207,-0.207 5.139,-5.098 11.327,-7.784c0.173,-0.075 0.369,-0.047 0.515,0.07c0.145,0.118 0.212,0.307 0.174,0.489c-1.186,5.744 -6.71,12.044 -6.944,12.309c-0.099,0.109 -0.237,0.168 -0.376,0.168zM18.455,19.285c1.184,0.445 3.258,1.475 3.783,3.356c1.449,-1.808 4.542,-5.973 5.697,-9.934c-4.387,2.11 -8.081,5.292 -9.48,6.578z" fill="#b71c1c"></path><path d="M13.079,28.36l-0.475,-0.88c1.883,-1.015 4.04,-2.883 5.807,-5.054c-1.504,1.03 -2.365,1.735 -2.392,1.758l-0.639,-0.77c0.039,-0.032 1.764,-1.447 4.631,-3.22c0.787,-1.266 1.392,-2.568 1.703,-3.816c0.053,-0.212 0.099,-0.417 0.136,-0.615c-1.925,-0.687 -3.701,-1.094 -4.921,-1.269c-0.185,-0.026 -0.339,-0.153 -0.401,-0.328c-0.062,-0.175 -0.021,-0.371 0.104,-0.507c0.085,-0.092 2.116,-2.268 4.654,-3.463c0.197,-0.093 0.433,-0.047 0.581,0.114c0.067,0.073 1.44,1.615 1.091,4.805c1.155,0.45 2.345,0.997 3.491,1.648c2.759,-1.24 5.892,-2.356 9.229,-3.03c0.172,-0.034 0.363,0.028 0.481,0.168c0.117,0.14 0.149,0.333 0.083,0.503c-1.3,3.332 -4.786,6.891 -4.934,7.041c-0.101,0.102 -0.239,0.153 -0.383,0.148c-0.143,-0.008 -0.275,-0.076 -0.365,-0.188c-1.12,-1.408 -2.584,-2.574 -4.163,-3.523c-2.175,1.004 -4.101,2.078 -5.684,3.049c-2.02,3.153 -5.069,6.048 -7.634,7.429zM27.492,17.396c1.29,0.832 2.491,1.81 3.484,2.948c0.828,-0.898 2.815,-3.168 3.942,-5.422c-2.65,0.61 -5.158,1.493 -7.426,2.474zM22.799,16.122c-0.033,0.163 -0.071,0.33 -0.113,0.5c-0.21,0.839 -0.544,1.701 -0.972,2.561c1.096,-0.626 2.309,-1.272 3.618,-1.898c-0.838,-0.444 -1.693,-0.83 -2.533,-1.163zM18.048,13.672c1.111,0.218 2.48,0.574 3.941,1.086c0.152,-1.843 -0.346,-2.972 -0.647,-3.472c-1.376,0.718 -2.581,1.728 -3.294,2.386z" fill="#b71c1c"></path><path d="M18.05,18.5c0,4.38 -3.65,7.86 -6.28,10.4c-0.44,0.43 -1.93,0.5 -1.93,0.5c0.37,-0.38 0.79,-0.78 1.24,-1.21c2.5,-2.42 5.97,-5.73 5.97,-9.69c0,-4.69 -1.89,-6.54 -3.38,-8.02c-0.66,-0.67 -1.22,-1.31 -1.56,-2.09l0.31,-0.13c0.34,0.15 0.73,0.32 1.03,0.45c0.24,0.35 0.56,0.69 0.93,1.06c1.53,1.53 3.67,3.63 3.67,8.73z" fill="#b71c1c"></path><path d="M42.935,19.794c0,0 -0.605,0.086 -0.775,0.106c-8.76,0.97 -17.8,3.49 -22.97,5.56c-1.87,0.75 -3.81,1.66 -5.58,2.68c-0.01,0.01 -0.02,0.01 -0.04,0.02c-1.04,0.6 -3.57,1.84 -5.62,2.93c3,-3.19 8.62,-5.65 10.86,-6.55c5.07,-2.03 13.78,-4.48 22.35,-5.53c-1.01,-1.18 -3.48,-3.68 -8.34,-5.54c-2.84,-1.1 -7.16,-1.72 -10.97,-2.27c-6.06,-0.87 -9.51,-1.45 -9.84,-3.1c-0.07,-0.33 -0.02,-0.66 0.13,-0.98c0.33,0.54 0.8,0.92 1.11,1.14c0.15,0.1 0.26,0.16 0.3,0.18l0.01,0.01c1.42,0.75 5.25,1.3 8.44,1.76c3.86,0.56 8.23,1.19 11.18,2.32c6.87,2.65 9.24,6.44 9.34,6.6c0.09,0.15 0.415,0.664 0.415,0.664z" fill="#b71c1c"></path></g></g><g fill="#ad3419" fill-rule="nonzero" stroke="none" stroke-width="1" stroke-linecap="butt" stroke-linejoin="miter" stroke-miterlimit="10" stroke-dasharray="" stroke-dashoffset="0" font-family="none" font-weight="none" font-size="none" text-anchor="none" style="mix-blend-mode: normal"><g><path d="M76.305,243.03833v0c-1.28667,-0.36667 -2.22333,-0.82 -2.81,-1.36c-0.58667,-0.54 -0.88,-1.20667 -0.88,-2v0c0,-0.89333 0.36,-1.63333 1.08,-2.22c0.71333,-0.58667 1.64333,-0.88 2.79,-0.88v0c0.78,0 1.47667,0.15 2.09,0.45c0.61333,0.30667 1.08667,0.72333 1.42,1.25c0.34,0.53333 0.51,1.11333 0.51,1.74v0h-1.51c0,-0.68667 -0.22,-1.22667 -0.66,-1.62c-0.43333,-0.39333 -1.05,-0.59 -1.85,-0.59v0c-0.74,0 -1.31667,0.16333 -1.73,0.49c-0.41333,0.32667 -0.62,0.78 -0.62,1.36v0c0,0.46 0.19667,0.85 0.59,1.17c0.39333,0.32 1.06333,0.61333 2.01,0.88c0.94667,0.26667 1.68667,0.56 2.22,0.88c0.53333,0.32 0.92667,0.69333 1.18,1.12c0.26,0.42667 0.39,0.93 0.39,1.51v0c0,0.92 -0.36,1.65667 -1.08,2.21c-0.72,0.56 -1.68,0.84 -2.88,0.84v0c-0.78,0 -1.51,-0.15 -2.19,-0.45c-0.67333,-0.3 -1.19333,-0.71 -1.56,-1.23c-0.36667,-0.52 -0.55,-1.11333 -0.55,-1.78v0h1.5c0,0.68667 0.25333,1.23 0.76,1.63c0.51333,0.4 1.19333,0.6 2.04,0.6v0c0.79333,0 1.4,-0.16 1.82,-0.48c0.42,-0.32667 0.63,-0.76667 0.63,-1.32c0,-0.56 -0.19333,-0.99333 -0.58,-1.3c-0.39333,-0.3 -1.10333,-0.6 -2.13,-0.9zM81.865,243.90833v-0.1c0,-1.32667 0.30667,-2.37667 0.92,-3.15c0.60667,-0.77333 1.42333,-1.16 2.45,-1.16v0c1,0 1.79,0.33667 2.37,1.01v0l0.06,-0.85h1.33v11.7h-1.45v-4.03c-0.58,0.62667 -1.35333,0.94 -2.32,0.94v0c-1.02667,0 -1.84333,-0.4 -2.45,-1.2c-0.60667,-0.79333 -0.91,-1.84667 -0.91,-3.16zM83.315,243.97833v0c0,0.96667 0.20333,1.72667 0.61,2.28c0.41333,0.55333 0.96667,0.83 1.66,0.83v0c0.85333,0 1.50667,-0.38 1.96,-1.14v0v-4.14c-0.45333,-0.74667 -1.10333,-1.12 -1.95,-1.12v0c-0.7,0 -1.25333,0.27667 -1.66,0.83c-0.41333,0.55333 -0.62,1.37333 -0.62,2.46zM92.885,236.10833v12h-1.45v-12zM98.775,243.03833v0c-1.28667,-0.36667 -2.22333,-0.82 -2.81,-1.36c-0.58667,-0.54 -0.88,-1.20667 -0.88,-2v0c0,-0.89333 0.36,-1.63333 1.08,-2.22c0.71333,-0.58667 1.64333,-0.88 2.79,-0.88v0c0.78,0 1.47667,0.15 2.09,0.45c0.61333,0.30667 1.08667,0.72333 1.42,1.25c0.34,0.53333 0.51,1.11333 0.51,1.74v0h-1.51c0,-0.68667 -0.22,-1.22667 -0.66,-1.62c-0.43333,-0.39333 -1.05,-0.59 -1.85,-0.59v0c-0.74,0 -1.31667,0.16333 -1.73,0.49c-0.41333,0.32667 -0.62,0.78 -0.62,1.36v0c0,0.46 0.19667,0.85 0.59,1.17c0.39333,0.32 1.06333,0.61333 2.01,0.88c0.94,0.26667 1.68,0.56 2.22,0.88c0.53333,0.32 0.92667,0.69333 1.18,1.12c0.26,0.42667 0.39,0.93 0.39,1.51v0c0,0.92 -0.36,1.65667 -1.08,2.21c-0.72,0.56 -1.68,0.84 -2.88,0.84v0c-0.78,0 -1.51,-0.15 -2.19,-0.45c-0.67333,-0.3 -1.19667,-0.71 -1.57,-1.23c-0.36667,-0.52 -0.55,-1.11333 -0.55,-1.78v0h1.51c0,0.68667 0.25333,1.23 0.76,1.63c0.51333,0.4 1.19333,0.6 2.04,0.6v0c0.79333,0 1.4,-0.16 1.82,-0.48c0.42,-0.32667 0.63,-0.76667 0.63,-1.32c0,-0.56 -0.19333,-0.99333 -0.58,-1.3c-0.39333,-0.3 -1.10333,-0.6 -2.13,-0.9zM108.195,248.26833v0c-1.14667,0 -2.07667,-0.37667 -2.79,-1.13c-0.72,-0.75333 -1.08,-1.76 -1.08,-3.02v0v-0.27c0,-0.84 0.16,-1.58667 0.48,-2.24c0.32,-0.66 0.76667,-1.17667 1.34,-1.55c0.58,-0.37333 1.20333,-0.56 1.87,-0.56v0c1.1,0 1.95667,0.36333 2.57,1.09c0.60667,0.72 0.91,1.75667 0.91,3.11v0v0.6h-5.73c0.02,0.83333 0.26333,1.50667 0.73,2.02c0.46667,0.51333 1.06,0.77 1.78,0.77v0c0.51333,0 0.94667,-0.10667 1.3,-0.32c0.35333,-0.20667 0.66333,-0.48 0.93,-0.82v0l0.88,0.68c-0.70667,1.09333 -1.77,1.64 -3.19,1.64zM108.015,240.68833v0c-0.58,0 -1.07,0.21 -1.47,0.63c-0.39333,0.42667 -0.63667,1.02333 -0.73,1.79v0h4.23v-0.11c-0.04,-0.73333 -0.23667,-1.30333 -0.59,-1.71c-0.35333,-0.4 -0.83333,-0.6 -1.44,-0.6zM117.255,239.60833v1.34c-0.22,-0.03333 -0.45667,-0.05 -0.71,-0.05v0c-0.95333,0 -1.59667,0.40333 -1.93,1.21v0v6h-1.45v-8.45h1.41l0.02,0.97c0.47333,-0.75333 1.14667,-1.13 2.02,-1.13v0c0.28,0 0.49333,0.03667 0.64,0.11zM119.365,239.65833l2.15,6.49l2.09,-6.49h1.48l-3.04,8.45h-1.1l-3.06,-8.45zM129.875,248.26833v0c-1.14667,0 -2.07667,-0.37667 -2.79,-1.13c-0.72,-0.75333 -1.08,-1.76 -1.08,-3.02v0v-0.27c0,-0.84 0.16,-1.58667 0.48,-2.24c0.32,-0.66 0.76667,-1.17667 1.34,-1.55c0.57333,-0.37333 1.19667,-0.56 1.87,-0.56v0c1.1,0 1.95667,0.36333 2.57,1.09c0.60667,0.72 0.91,1.75667 0.91,3.11v0v0.6h-5.73c0.02,0.83333 0.26333,1.50667 0.73,2.02c0.46667,0.51333 1.06,0.77 1.78,0.77v0c0.51333,0 0.94667,-0.10667 1.3,-0.32c0.35333,-0.20667 0.66333,-0.48 0.93,-0.82v0l0.88,0.68c-0.70667,1.09333 -1.77,1.64 -3.19,1.64zM129.695,240.68833v0c-0.58,0 -1.07,0.21 -1.47,0.63c-0.39333,0.42667 -0.63667,1.02333 -0.73,1.79v0h4.23v-0.11c-0.04,-0.73333 -0.23667,-1.30333 -0.59,-1.71c-0.35333,-0.4 -0.83333,-0.6 -1.44,-0.6zM138.935,239.60833v1.34c-0.22,-0.03333 -0.45667,-0.05 -0.71,-0.05v0c-0.95333,0 -1.59667,0.40333 -1.93,1.21v0v6h-1.45v-8.45h1.41l0.02,0.97c0.47333,-0.75333 1.14667,-1.13 2.02,-1.13v0c0.28,0 0.49333,0.03667 0.64,0.11z"></path></g></g></svg>