<svg xmlns="http://www.w3.org/2000/svg" xmlns:xlink="http://www.w3.org/1999/xlink" viewBox="0,0,256,256" width="480px" height="480px"><g transform="translate(28.16,28.16) scale(0.78,0.78)"><g fill="none" fill-rule="nonzero" stroke="none" stroke-width="1" stroke-linecap="butt" stroke-linejoin="miter" stroke-miterlimit="10" stroke-dasharray="" stroke-dashoffset="0" font-family="none" font-weight="none" font-size="none" text-anchor="none" style="mix-blend-mode: normal"><g transform="scale(5.33333,5.33333)"><path d="M23.084,11.277c-1.633,-2.449 -1.986,-5.722 -2.063,-7.067c-4.148,0.897 -8.269,2.506 -8.031,3.691c0.03,0.149 0.218,0.328 0.53,0.502l-0.488,0.873c-0.596,-0.334 -0.931,-0.719 -1.022,-1.179c-0.269,-1.341 1.25,-2.554 4.642,-3.709c2.316,-0.789 4.652,-1.26 4.751,-1.279l0.597,-0.12l0,0.611c0,0.042 0.026,4.288 1.916,7.123z" fill="#cfd8dc"></path><path d="M24.751,43h-0.251c-8.192,0 -17.309,-2.573 -18.386,-6.879c-0.657,-2.63 1.492,-5.536 6.214,-8.401l0.52,0.854c-4.249,2.579 -6.296,5.172 -5.763,7.305c0.935,3.738 9.575,6.068 17.153,6.12c0.901,-1.347 5.742,-9.26 2.979,-19.873l0.967,-0.252c3.149,12.092 -3.218,20.837 -3.282,20.924z" fill="#cfd8dc"></path><path d="M9.931,39.306c-0.539,0 -0.806,-0.059 -0.85,-0.07c-0.176,-0.043 -0.314,-0.178 -0.362,-0.352c-0.049,-0.174 0.001,-0.361 0.129,-0.488c0.072,-0.072 7.197,-7.208 8.159,-12.978l0.986,0.164c-0.827,4.964 -5.715,10.623 -7.656,12.707c1.939,-0.111 6.835,-1.019 16.234,-6.28c-7.335,-0.804 -8.495,-6.676 -8.507,-6.739l0.983,-0.181c0.047,0.246 1.226,6.011 9.244,6.011c0.003,0 0.005,0 0.008,0v0c0.227,0 0.424,0.152 0.482,0.37c0.06,0.218 -0.036,0.449 -0.231,0.563c-11.235,6.509 -16.683,7.272 -18.619,7.273z" fill="#cfd8dc"></path><path d="M14.524,41.7c-0.207,0 -0.395,-0.128 -0.468,-0.325c-0.079,-0.211 -0.007,-0.45 0.177,-0.582c0.034,-0.025 1.813,-1.338 3.706,-4.228c-0.728,-0.322 -1.465,-0.698 -2.196,-1.137c-0.888,-0.533 -1.559,-1.105 -2.06,-1.691c-2.57,0.678 -4.942,0.946 -7.025,0.769l0.084,-0.996c1.876,0.159 4.009,-0.063 6.321,-0.64c-1.573,-2.688 -0.129,-5.356 -0.109,-5.392l0.874,0.487c-0.067,0.122 -1.265,2.37 0.249,4.633c2.201,-0.632 4.549,-1.567 6.979,-2.782c0.559,-1.835 0.996,-3.922 1.225,-6.276c0.016,-0.161 0.108,-0.304 0.248,-0.385c0.14,-0.081 0.311,-0.088 0.458,-0.021c0.032,0.015 3.264,1.491 5.604,2.454c0.17,0.07 0.288,0.228 0.307,0.411c0.02,0.183 -0.063,0.361 -0.216,0.465c-2.289,1.56 -4.563,2.913 -6.778,4.042c-0.702,2.225 -1.571,4.077 -2.459,5.591c3.702,1.383 6.915,1.404 6.956,1.404c0.228,0 0.427,0.154 0.484,0.375c0.057,0.221 -0.042,0.452 -0.241,0.563c-4.54,2.522 -11.767,3.232 -12.072,3.261c-0.016,-0.001 -0.032,0 -0.048,0zM18.909,36.967c-1.04,1.614 -2.062,2.773 -2.826,3.53c1.998,-0.294 5.501,-0.938 8.408,-2.139c-1.392,-0.171 -3.407,-0.551 -5.582,-1.391zM14.767,33.431c0.393,0.392 0.883,0.775 1.49,1.14c0.736,0.442 1.483,0.817 2.22,1.135c0.754,-1.264 1.501,-2.781 2.142,-4.568c-2.021,0.962 -3.983,1.73 -5.852,2.293zM23.202,24.329c-0.205,1.768 -0.521,3.381 -0.913,4.85c1.66,-0.885 3.354,-1.896 5.062,-3.026c-1.549,-0.656 -3.252,-1.419 -4.149,-1.824z" fill="#cfd8dc"></path><path d="M17.924,10.6c-0.117,0 -0.233,-0.042 -0.325,-0.12c-1.61,-1.378 -3.505,-4.182 -3.585,-4.301c-0.129,-0.191 -0.109,-0.446 0.046,-0.616c0.154,-0.171 0.408,-0.211 0.608,-0.102c0.011,0.003 0.938,0.385 7.217,1.431c0.181,0.03 0.33,0.156 0.39,0.328c0.061,0.172 0.022,0.364 -0.1,0.5c-1.758,1.953 -3.979,2.813 -4.073,2.848c-0.058,0.021 -0.119,0.032 -0.178,0.032zM15.647,6.746c0.631,0.849 1.54,1.996 2.372,2.769c0.511,-0.233 1.657,-0.818 2.744,-1.798c-2.583,-0.441 -4.159,-0.755 -5.116,-0.971z" fill="#cfd8dc"></path><path d="M21.843,24.4c-0.068,0 -0.137,-0.014 -0.201,-0.042c-0.199,-0.088 -0.319,-0.294 -0.296,-0.51c0.292,-2.749 -3.926,-3.852 -3.969,-3.862c-0.174,-0.044 -0.312,-0.179 -0.359,-0.352c-0.047,-0.173 0.002,-0.359 0.129,-0.486c0.207,-0.207 5.139,-5.098 11.327,-7.784c0.173,-0.075 0.369,-0.047 0.515,0.07c0.145,0.118 0.212,0.307 0.174,0.489c-1.186,5.744 -6.71,12.044 -6.944,12.309c-0.099,0.109 -0.237,0.168 -0.376,0.168zM18.455,19.285c1.184,0.445 3.258,1.475 3.783,3.356c1.449,-1.808 4.542,-5.973 5.697,-9.934c-4.387,2.11 -8.081,5.292 -9.48,6.578z" fill="#b71c1c"></path><path d="M13.079,28.36l-0.475,-0.88c1.883,-1.015 4.04,-2.883 5.807,-5.054c-1.504,1.03 -2.365,1.735 -2.392,1.758l-0.639,-0.77c0.039,-0.032 1.764,-1.447 4.631,-3.22c0.787,-1.266 1.392,-2.568 1.703,-3.816c0.053,-0.212 0.099,-0.417 0.136,-0.615c-1.925,-0.687 -3.701,-1.094 -4.921,-1.269c-0.185,-0.026 -0.339,-0.153 -0.401,-0.328c-0.062,-0.175 -0.021,-0.371 0.104,-0.507c0.085,-0.092 2.116,-2.268 4.654,-3.463c0.197,-0.093 0.433,-0.047 0.581,0.114c0.067,0.073 1.44,1.615 1.091,4.805c1.155,0.45 2.345,0.997 3.491,1.648c2.759,-1.24 5.892,-2.356 9.229,-3.03c0.172,-0.034 0.363,0.028 0.481,0.168c0.117,0.14 0.149,0.333 0.083,0.503c-1.3,3.332 -4.786,6.891 -4.934,7.041c-0.101,0.102 -0.239,0.153 -0.383,0.148c-0.143,-0.008 -0.275,-0.076 -0.365,-0.188c-1.12,-1.408 -2.584,-2.574 -4.163,-3.523c-2.175,1.004 -4.101,2.078 -5.684,3.049c-2.02,3.153 -5.069,6.048 -7.634,7.429zM27.492,17.396c1.29,0.832 2.491,1.81 3.484,2.948c0.828,-0.898 2.815,-3.168 3.942,-5.422c-2.65,0.61 -5.158,1.493 -7.426,2.474zM22.799,16.122c-0.033,0.163 -0.071,0.33 -0.113,0.5c-0.21,0.839 -0.544,1.701 -0.972,2.561c1.096,-0.626 2.309,-1.272 3.618,-1.898c-0.838,-0.444 -1.693,-0.83 -2.533,-1.163zM18.048,13.672c1.111,0.218 2.48,0.574 3.941,1.086c0.152,-1.843 -0.346,-2.972 -0.647,-3.472c-1.376,0.718 -2.581,1.728 -3.294,2.386z" fill="#b71c1c"></path><path d="M18.05,18.5c0,4.38 -3.65,7.86 -6.28,10.4c-0.44,0.43 -1.93,0.5 -1.93,0.5c0.37,-0.38 0.79,-0.78 1.24,-1.21c2.5,-2.42 5.97,-5.73 5.97,-9.69c0,-4.69 -1.89,-6.54 -3.38,-8.02c-0.66,-0.67 -1.22,-1.31 -1.56,-2.09l0.31,-0.13c0.34,0.15 0.73,0.32 1.03,0.45c0.24,0.35 0.56,0.69 0.93,1.06c1.53,1.53 3.67,3.63 3.67,8.73z" fill="#b71c1c"></path><path d="M42.935,19.794c0,0 -0.605,0.086 -0.775,0.106c-8.76,0.97 -17.8,3.49 -22.97,5.56c-1.87,0.75 -3.81,1.66 -5.58,2.68c-0.01,0.01 -0.02,0.01 -0.04,0.02c-1.04,0.6 -3.57,1.84 -5.62,2.93c3,-3.19 8.62,-5.65 10.86,-6.55c5.07,-2.03 13.78,-4.48 22.35,-5.53c-1.01,-1.18 -3.48,-3.68 -8.34,-5.54c-2.84,-1.1 -7.16,-1.72 -10.97,-2.27c-6.06,-0.87 -9.51,-1.45 -9.84,-3.1c-0.07,-0.33 -0.02,-0.66 0.13,-0.98c0.33,0.54 0.8,0.92 1.11,1.14c0.15,0.1 0.26,0.16 0.3,0.18l0.01,0.01c1.42,0.75 5.25,1.3 8.44,1.76c3.86,0.56 8.23,1.19 11.18,2.32c6.87,2.65 9.24,6.44 9.34,6.6c0.09,0.15 0.415,0.664 0.415,0.664z" fill="#b71c1c"></path></g></g><g fill="#bc2f10" fill-rule="nonzero" stroke="none" stroke-width="1" stroke-linecap="butt" stroke-linejoin="miter" stroke-miterlimit="10" stroke-dasharray="" stroke-dashoffset="0" font-family="none" font-weight="none" font-size="none" text-anchor="none" style="mix-blend-mode: normal"><g><path d="M10.37833,245.06667v0c-3.86,-1.10667 -6.67,-2.47 -8.43,-4.09c-1.76,-1.62 -2.64,-3.61667 -2.64,-5.99v0c0,-2.68667 1.07667,-4.91 3.23,-6.67c2.14667,-1.75333 4.93667,-2.63 8.37,-2.63v0c2.34667,0 4.43667,0.45333 6.27,1.36c1.84,0.90667 3.26333,2.15667 4.27,3.75c1.00667,1.59333 1.51,3.33333 1.51,5.22v0h-4.52c0,-2.06 -0.65667,-3.68 -1.97,-4.86c-1.31333,-1.18 -3.16667,-1.77 -5.56,-1.77v0c-2.21333,0 -3.94333,0.48667 -5.19,1.46c-1.24,0.98 -1.86,2.33667 -1.86,4.07v0c0,1.39333 0.59,2.57 1.77,3.53c1.18,0.96 3.18667,1.83667 6.02,2.63c2.84,0.8 5.06,1.68 6.66,2.64c1.6,0.96 2.78667,2.08 3.56,3.36c0.77333,1.28667 1.16,2.79667 1.16,4.53v0c0,2.76667 -1.07667,4.98 -3.23,6.64c-2.16,1.66667 -5.04333,2.5 -8.65,2.5v0c-2.34667,0 -4.53333,-0.45 -6.56,-1.35c-2.03333,-0.9 -3.6,-2.13 -4.7,-3.69c-1.1,-1.56 -1.65,-3.33333 -1.65,-5.32v0h4.52c0,2.06 0.76,3.69 2.28,4.89c1.52667,1.19333 3.56333,1.79 6.11,1.79v0c2.37333,0 4.19333,-0.48333 5.46,-1.45c1.26667,-0.97333 1.9,-2.29333 1.9,-3.96c0,-1.67333 -0.58667,-2.96667 -1.76,-3.88c-1.17333,-0.91333 -3.29667,-1.81667 -6.37,-2.71zM54.85833,242.13667v2.18c0,3.29333 -0.52333,6.13333 -1.57,8.52c-1.04667,2.38 -2.51667,4.24333 -4.41,5.59v0l6.1,4.78l-3.07,2.84l-7.2,-5.72c-1.12667,0.28 -2.31333,0.42 -3.56,0.42v0c-2.68667,0 -5.07,-0.66 -7.15,-1.98c-2.08,-1.32 -3.69333,-3.20333 -4.84,-5.65c-1.14667,-2.44667 -1.73667,-5.28 -1.77,-8.5v0v-2.46c0,-3.28 0.57,-6.17667 1.71,-8.69c1.14,-2.52 2.75333,-4.44667 4.84,-5.78c2.08667,-1.33333 4.47333,-2 7.16,-2v0c2.75333,0 5.17333,0.66333 7.26,1.99c2.08667,1.32667 3.69,3.23667 4.81,5.73c1.12667,2.49333 1.69,5.40333 1.69,8.73zM50.35833,244.64667v-2.53c0,-4.02 -0.8,-7.12 -2.4,-9.3c-1.6,-2.18 -3.88667,-3.27 -6.86,-3.27v0c-2.82667,0 -5.05667,1.08333 -6.69,3.25c-1.63333,2.16667 -2.47333,5.17 -2.52,9.01v0v2.51c0,3.90667 0.81667,6.98333 2.45,9.23c1.63333,2.25333 3.90333,3.38 6.81,3.38c2.90667,0 5.15667,-1.06 6.75,-3.18c1.59333,-2.11333 2.41333,-5.14667 2.46,-9.1zM66.31833,226.15667v30.44h16.17v3.68h-20.69v-34.12zM109.55833,245.06667v0c-3.86,-1.10667 -6.66667,-2.47 -8.42,-4.09c-1.76,-1.62 -2.64,-3.61667 -2.64,-5.99v0c0,-2.68667 1.07333,-4.91 3.22,-6.67c2.15333,-1.75333 4.94667,-2.63 8.38,-2.63v0c2.34667,0 4.43667,0.45333 6.27,1.36c1.84,0.90667 3.26333,2.15667 4.27,3.75c1.00667,1.59333 1.51,3.33333 1.51,5.22v0h-4.52c0,-2.06 -0.65667,-3.68 -1.97,-4.86c-1.31333,-1.18 -3.16667,-1.77 -5.56,-1.77v0c-2.22,0 -3.95,0.48667 -5.19,1.46c-1.24,0.98 -1.86,2.33667 -1.86,4.07v0c0,1.39333 0.59,2.57 1.77,3.53c1.18,0.96 3.18667,1.83667 6.02,2.63c2.83333,0.8 5.05333,1.68 6.66,2.64c1.6,0.96 2.78667,2.08 3.56,3.36c0.77333,1.28667 1.16,2.79667 1.16,4.53v0c0,2.76667 -1.07667,4.98 -3.23,6.64c-2.16,1.66667 -5.04333,2.5 -8.65,2.5v0c-2.34667,0 -4.53667,-0.45 -6.57,-1.35c-2.02667,-0.9 -3.59333,-2.13 -4.7,-3.69c-1.1,-1.56 -1.65,-3.33333 -1.65,-5.32v0h4.53c0,2.06 0.76,3.69 2.28,4.89c1.52667,1.19333 3.56333,1.79 6.11,1.79v0c2.37333,0 4.19333,-0.48333 5.46,-1.45c1.26667,-0.97333 1.9,-2.29333 1.9,-3.96c0,-1.67333 -0.58667,-2.96667 -1.76,-3.88c-1.17333,-0.91333 -3.3,-1.81667 -6.38,-2.71zM137.82833,260.74667v0c-3.44,0 -6.23667,-1.13 -8.39,-3.39c-2.16,-2.25333 -3.24,-5.27333 -3.24,-9.06v0v-0.79c0,-2.52 0.48333,-4.76667 1.45,-6.74c0.96,-1.98 2.30333,-3.52667 4.03,-4.64c1.72667,-1.12 3.59667,-1.68 5.61,-1.68v0c3.3,0 5.86333,1.08667 7.69,3.26c1.82667,2.17333 2.74,5.28333 2.74,9.33v0v1.8h-17.18c0.06,2.5 0.79,4.52 2.19,6.06c1.4,1.54 3.17667,2.31 5.33,2.31v0c1.53333,0 2.83,-0.31333 3.89,-0.94c1.06667,-0.62667 1.99667,-1.45333 2.79,-2.48v0l2.65,2.06c-2.12667,3.26667 -5.31333,4.9 -9.56,4.9zM137.28833,238.00667v0c-1.75333,0 -3.22333,0.63667 -4.41,1.91c-1.18667,1.27333 -1.92,3.06 -2.2,5.36v0h12.7v-0.33c-0.12,-2.2 -0.71333,-3.90667 -1.78,-5.12c-1.06,-1.21333 -2.49667,-1.82 -4.31,-1.82zM164.98833,234.77667v4.03c-0.65333,-0.10667 -1.36333,-0.16 -2.13,-0.16v0c-2.84667,0 -4.77667,1.21 -5.79,3.63v0v18h-4.33v-25.36h4.21l0.07,2.93c1.42667,-2.26667 3.44333,-3.4 6.05,-3.4v0c0.84667,0 1.48667,0.11 1.92,0.33zM171.31833,234.91667l6.45,19.48l6.28,-19.48h4.43l-9.1,25.36h-3.3l-9.19,-25.36zM202.86833,260.74667v0c-3.44,0 -6.23667,-1.13 -8.39,-3.39c-2.16,-2.25333 -3.24,-5.27333 -3.24,-9.06v0v-0.79c0,-2.52 0.48,-4.76667 1.44,-6.74c0.96667,-1.98 2.31333,-3.52667 4.04,-4.64c1.72667,-1.12 3.59667,-1.68 5.61,-1.68v0c3.29333,0 5.85667,1.08667 7.69,3.26c1.82667,2.17333 2.74,5.28333 2.74,9.33v0v1.8h-17.18c0.06,2.5 0.79,4.52 2.19,6.06c1.4,1.54 3.17667,2.31 5.33,2.31v0c1.53333,0 2.83,-0.31333 3.89,-0.94c1.06667,-0.62667 1.99667,-1.45333 2.79,-2.48v0l2.65,2.06c-2.12667,3.26667 -5.31333,4.9 -9.56,4.9zM202.32833,238.00667v0c-1.75333,0 -3.22333,0.63667 -4.41,1.91c-1.18667,1.27333 -1.92,3.06 -2.2,5.36v0h12.7v-0.33c-0.12,-2.2 -0.71333,-3.90667 -1.78,-5.12c-1.06,-1.21333 -2.49667,-1.82 -4.31,-1.82zM230.02833,234.77667v4.03c-0.65333,-0.10667 -1.36333,-0.16 -2.13,-0.16v0c-2.84667,0 -4.77667,1.21 -5.79,3.63v0v18h-4.34v-25.36h4.22l0.07,2.93c1.42667,-2.26667 3.44333,-3.4 6.05,-3.4v0c0.84667,0 1.48667,0.11 1.92,0.33z"></path></g></g></g></svg>